<mxfile host="app.diagrams.net" modified="2023-11-27T13:28:19.407Z" agent="Mozilla/5.0 (Windows NT 10.0; Win64; x64) AppleWebKit/537.36 (KHTML, like Gecko) Chrome/119.0.0.0 Safari/537.36" etag="0dFa9Ih4J2GOk32f0Y9p" version="22.1.4" type="device">
  <diagram name="Page-1" id="753kvmaF_DVfLbXdQwGz">
    <mxGraphModel dx="1434" dy="878" grid="1" gridSize="10" guides="1" tooltips="1" connect="1" arrows="1" fold="1" page="1" pageScale="1" pageWidth="850" pageHeight="1100" math="0" shadow="0">
      <root>
        <mxCell id="0" />
        <mxCell id="1" parent="0" />
        <mxCell id="TBEka644gf0eOJCMvtAv-54" style="edgeStyle=none;rounded=0;orthogonalLoop=1;jettySize=auto;html=1;exitX=0;exitY=0.5;exitDx=0;exitDy=0;entryX=0;entryY=0.5;entryDx=0;entryDy=0;fontStyle=1;strokeWidth=2;fontSize=13;" parent="1" source="TBEka644gf0eOJCMvtAv-1" target="TBEka644gf0eOJCMvtAv-3" edge="1">
          <mxGeometry relative="1" as="geometry">
            <Array as="points">
              <mxPoint x="120" y="35" />
              <mxPoint x="120" y="190" />
            </Array>
          </mxGeometry>
        </mxCell>
        <mxCell id="TBEka644gf0eOJCMvtAv-1" value="Machine" style="rounded=0;whiteSpace=wrap;html=1;fillColor=#008a00;fontColor=#ffffff;strokeColor=#005700;fontStyle=1;strokeWidth=2;fontSize=13;" parent="1" vertex="1">
          <mxGeometry x="150" y="20" width="120" height="30" as="geometry" />
        </mxCell>
        <mxCell id="TBEka644gf0eOJCMvtAv-53" style="edgeStyle=none;rounded=0;orthogonalLoop=1;jettySize=auto;html=1;exitX=0;exitY=0.5;exitDx=0;exitDy=0;fontStyle=1;strokeWidth=2;fontSize=13;entryX=0;entryY=0.5;entryDx=0;entryDy=0;" parent="1" source="TBEka644gf0eOJCMvtAv-2" target="TBEka644gf0eOJCMvtAv-3" edge="1">
          <mxGeometry relative="1" as="geometry">
            <Array as="points">
              <mxPoint x="120" y="85" />
              <mxPoint x="120" y="190" />
            </Array>
            <mxPoint x="150" y="240" as="targetPoint" />
          </mxGeometry>
        </mxCell>
        <mxCell id="TBEka644gf0eOJCMvtAv-2" value="Part" style="rounded=0;whiteSpace=wrap;html=1;fillColor=#008a00;fontColor=#ffffff;strokeColor=#005700;fontStyle=1;strokeWidth=2;fontSize=13;" parent="1" vertex="1">
          <mxGeometry x="150" y="70" width="120" height="30" as="geometry" />
        </mxCell>
        <mxCell id="TBEka644gf0eOJCMvtAv-11" style="edgeStyle=none;rounded=0;orthogonalLoop=1;jettySize=auto;html=1;exitX=1;exitY=0.5;exitDx=0;exitDy=0;entryX=0;entryY=0.5;entryDx=0;entryDy=0;fontStyle=1;strokeWidth=2;fontSize=13;" parent="1" source="TBEka644gf0eOJCMvtAv-3" target="TBEka644gf0eOJCMvtAv-4" edge="1">
          <mxGeometry relative="1" as="geometry" />
        </mxCell>
        <mxCell id="TBEka644gf0eOJCMvtAv-13" style="edgeStyle=none;rounded=0;orthogonalLoop=1;jettySize=auto;html=1;exitX=0.5;exitY=1;exitDx=0;exitDy=0;entryX=0.5;entryY=0;entryDx=0;entryDy=0;fontStyle=1;strokeWidth=2;fontSize=13;" parent="1" source="TBEka644gf0eOJCMvtAv-3" target="TBEka644gf0eOJCMvtAv-8" edge="1">
          <mxGeometry relative="1" as="geometry" />
        </mxCell>
        <mxCell id="TBEka644gf0eOJCMvtAv-3" value="Toolpath" style="rounded=0;whiteSpace=wrap;html=1;fontStyle=1;strokeWidth=2;fontSize=13;fillColor=#76608a;fontColor=#ffffff;strokeColor=#432D57;" parent="1" vertex="1">
          <mxGeometry x="150" y="170" width="120" height="40" as="geometry" />
        </mxCell>
        <mxCell id="RDmmLznYdM-VpYdwFti7-1" style="edgeStyle=orthogonalEdgeStyle;rounded=0;orthogonalLoop=1;jettySize=auto;html=1;exitX=0.5;exitY=0;exitDx=0;exitDy=0;entryX=0.5;entryY=1;entryDx=0;entryDy=0;strokeWidth=2;" parent="1" source="TBEka644gf0eOJCMvtAv-4" target="TBEka644gf0eOJCMvtAv-21" edge="1">
          <mxGeometry relative="1" as="geometry" />
        </mxCell>
        <mxCell id="RDmmLznYdM-VpYdwFti7-8" style="edgeStyle=orthogonalEdgeStyle;rounded=0;orthogonalLoop=1;jettySize=auto;html=1;exitX=0.75;exitY=1;exitDx=0;exitDy=0;strokeWidth=2;" parent="1" source="TBEka644gf0eOJCMvtAv-4" target="TBEka644gf0eOJCMvtAv-44" edge="1">
          <mxGeometry relative="1" as="geometry">
            <Array as="points">
              <mxPoint x="418" y="270" />
            </Array>
          </mxGeometry>
        </mxCell>
        <mxCell id="RDmmLznYdM-VpYdwFti7-23" style="edgeStyle=orthogonalEdgeStyle;rounded=0;orthogonalLoop=1;jettySize=auto;html=1;exitX=0.25;exitY=1;exitDx=0;exitDy=0;entryX=0.5;entryY=0;entryDx=0;entryDy=0;strokeWidth=2;" parent="1" source="TBEka644gf0eOJCMvtAv-4" target="TBEka644gf0eOJCMvtAv-5" edge="1">
          <mxGeometry relative="1" as="geometry">
            <Array as="points">
              <mxPoint x="343" y="270" />
              <mxPoint x="315" y="270" />
            </Array>
          </mxGeometry>
        </mxCell>
        <mxCell id="RDmmLznYdM-VpYdwFti7-42" style="edgeStyle=orthogonalEdgeStyle;rounded=0;orthogonalLoop=1;jettySize=auto;html=1;exitX=0.5;exitY=1;exitDx=0;exitDy=0;entryX=0.5;entryY=0;entryDx=0;entryDy=0;strokeWidth=2;" parent="1" source="TBEka644gf0eOJCMvtAv-4" target="TBEka644gf0eOJCMvtAv-38" edge="1">
          <mxGeometry relative="1" as="geometry">
            <Array as="points">
              <mxPoint x="380" y="240" />
              <mxPoint x="400" y="240" />
            </Array>
          </mxGeometry>
        </mxCell>
        <mxCell id="RDmmLznYdM-VpYdwFti7-43" style="edgeStyle=orthogonalEdgeStyle;rounded=0;orthogonalLoop=1;jettySize=auto;html=1;exitX=1;exitY=0.5;exitDx=0;exitDy=0;entryX=0;entryY=0.5;entryDx=0;entryDy=0;strokeWidth=2;" parent="1" source="TBEka644gf0eOJCMvtAv-4" target="TBEka644gf0eOJCMvtAv-22" edge="1">
          <mxGeometry relative="1" as="geometry" />
        </mxCell>
        <mxCell id="TBEka644gf0eOJCMvtAv-4" value="Angular position of each joint" style="rounded=0;whiteSpace=wrap;html=1;fillColor=#0050ef;fontColor=#ffffff;strokeColor=#001DBC;fontStyle=1;strokeWidth=2;fontSize=13;" parent="1" vertex="1">
          <mxGeometry x="305" y="160" width="150" height="60" as="geometry" />
        </mxCell>
        <mxCell id="RDmmLznYdM-VpYdwFti7-24" style="edgeStyle=orthogonalEdgeStyle;rounded=0;orthogonalLoop=1;jettySize=auto;html=1;exitX=0.5;exitY=1;exitDx=0;exitDy=0;entryX=0.5;entryY=0;entryDx=0;entryDy=0;strokeWidth=2;" parent="1" source="TBEka644gf0eOJCMvtAv-5" target="TBEka644gf0eOJCMvtAv-6" edge="1">
          <mxGeometry relative="1" as="geometry" />
        </mxCell>
        <mxCell id="TBEka644gf0eOJCMvtAv-5" value="Angular velocity of each joint" style="rounded=0;whiteSpace=wrap;html=1;fillColor=#0050ef;fontColor=#ffffff;strokeColor=#001DBC;fontStyle=1;strokeWidth=2;fontSize=13;" parent="1" vertex="1">
          <mxGeometry x="240" y="325" width="150" height="50" as="geometry" />
        </mxCell>
        <mxCell id="RDmmLznYdM-VpYdwFti7-25" style="edgeStyle=orthogonalEdgeStyle;rounded=0;orthogonalLoop=1;jettySize=auto;html=1;exitX=0.5;exitY=1;exitDx=0;exitDy=0;entryX=0.5;entryY=0;entryDx=0;entryDy=0;strokeWidth=2;" parent="1" source="TBEka644gf0eOJCMvtAv-6" target="TBEka644gf0eOJCMvtAv-7" edge="1">
          <mxGeometry relative="1" as="geometry" />
        </mxCell>
        <mxCell id="RDmmLznYdM-VpYdwFti7-31" style="edgeStyle=orthogonalEdgeStyle;rounded=0;orthogonalLoop=1;jettySize=auto;html=1;exitX=0;exitY=0.75;exitDx=0;exitDy=0;strokeWidth=2;" parent="1" source="TBEka644gf0eOJCMvtAv-6" target="TBEka644gf0eOJCMvtAv-65" edge="1">
          <mxGeometry relative="1" as="geometry" />
        </mxCell>
        <mxCell id="TBEka644gf0eOJCMvtAv-6" value="Angular acceleration of each joint" style="rounded=0;whiteSpace=wrap;html=1;fillColor=#0050ef;fontColor=#ffffff;strokeColor=#001DBC;fontStyle=1;strokeWidth=2;fontSize=13;" parent="1" vertex="1">
          <mxGeometry x="240" y="430" width="150" height="45" as="geometry" />
        </mxCell>
        <mxCell id="RDmmLznYdM-VpYdwFti7-33" style="edgeStyle=orthogonalEdgeStyle;rounded=0;orthogonalLoop=1;jettySize=auto;html=1;exitX=0;exitY=0.75;exitDx=0;exitDy=0;strokeWidth=2;" parent="1" source="TBEka644gf0eOJCMvtAv-7" edge="1">
          <mxGeometry relative="1" as="geometry">
            <mxPoint x="200" y="580" as="targetPoint" />
          </mxGeometry>
        </mxCell>
        <mxCell id="TBEka644gf0eOJCMvtAv-7" value="Angular jerk of each joint" style="rounded=0;whiteSpace=wrap;html=1;fillColor=#0050ef;fontColor=#ffffff;strokeColor=#001DBC;fontStyle=1;strokeWidth=2;fontSize=13;" parent="1" vertex="1">
          <mxGeometry x="240" y="535" width="150" height="45" as="geometry" />
        </mxCell>
        <mxCell id="RDmmLznYdM-VpYdwFti7-49" style="edgeStyle=none;rounded=0;orthogonalLoop=1;jettySize=auto;html=1;exitX=1;exitY=0.5;exitDx=0;exitDy=0;entryX=0.5;entryY=0;entryDx=0;entryDy=0;strokeWidth=2;" parent="1" source="TBEka644gf0eOJCMvtAv-8" target="TBEka644gf0eOJCMvtAv-5" edge="1">
          <mxGeometry relative="1" as="geometry">
            <Array as="points">
              <mxPoint x="315" y="270" />
            </Array>
          </mxGeometry>
        </mxCell>
        <mxCell id="TBEka644gf0eOJCMvtAv-8" value="Temporal Information" style="rounded=0;whiteSpace=wrap;html=1;fillColor=#d80073;strokeColor=#A50040;fontColor=#ffffff;fontStyle=1;strokeWidth=2;fontSize=13;" parent="1" vertex="1">
          <mxGeometry x="150" y="250" width="120" height="40" as="geometry" />
        </mxCell>
        <mxCell id="RDmmLznYdM-VpYdwFti7-47" style="edgeStyle=none;rounded=0;orthogonalLoop=1;jettySize=auto;html=1;exitX=1;exitY=0;exitDx=0;exitDy=0;entryX=0;entryY=1;entryDx=0;entryDy=0;strokeWidth=2;" parent="1" source="TBEka644gf0eOJCMvtAv-21" target="RDmmLznYdM-VpYdwFti7-4" edge="1">
          <mxGeometry relative="1" as="geometry" />
        </mxCell>
        <mxCell id="TBEka644gf0eOJCMvtAv-21" value="Direction changes" style="rounded=0;whiteSpace=wrap;html=1;fillColor=#0050ef;fontColor=#ffffff;strokeColor=#001DBC;fontStyle=1;strokeWidth=2;fontSize=13;" parent="1" vertex="1">
          <mxGeometry x="307.5" y="90" width="145" height="40" as="geometry" />
        </mxCell>
        <mxCell id="RDmmLznYdM-VpYdwFti7-48" style="edgeStyle=none;rounded=0;orthogonalLoop=1;jettySize=auto;html=1;exitX=1;exitY=0.5;exitDx=0;exitDy=0;entryX=0;entryY=0.5;entryDx=0;entryDy=0;strokeWidth=2;" parent="1" source="TBEka644gf0eOJCMvtAv-22" target="TBEka644gf0eOJCMvtAv-60" edge="1">
          <mxGeometry relative="1" as="geometry" />
        </mxCell>
        <mxCell id="TBEka644gf0eOJCMvtAv-22" value="Total travel" style="rounded=0;whiteSpace=wrap;html=1;fillColor=#0050ef;fontColor=#ffffff;strokeColor=#001DBC;fontStyle=1;strokeWidth=2;fontSize=13;" parent="1" vertex="1">
          <mxGeometry x="490" y="170" width="120" height="40" as="geometry" />
        </mxCell>
        <mxCell id="RDmmLznYdM-VpYdwFti7-28" style="edgeStyle=orthogonalEdgeStyle;rounded=0;orthogonalLoop=1;jettySize=auto;html=1;exitX=1;exitY=0.5;exitDx=0;exitDy=0;entryX=0;entryY=0.25;entryDx=0;entryDy=0;strokeWidth=2;" parent="1" source="TBEka644gf0eOJCMvtAv-26" target="TBEka644gf0eOJCMvtAv-5" edge="1">
          <mxGeometry relative="1" as="geometry">
            <mxPoint x="230" y="325" as="targetPoint" />
          </mxGeometry>
        </mxCell>
        <mxCell id="TBEka644gf0eOJCMvtAv-26" value="Max. velocity" style="rounded=0;whiteSpace=wrap;html=1;fillColor=#d80073;strokeColor=#A50040;fontColor=#ffffff;fontStyle=1;strokeWidth=2;fontSize=13;" parent="1" vertex="1">
          <mxGeometry x="79" y="310" width="120" height="30" as="geometry" />
        </mxCell>
        <mxCell id="RDmmLznYdM-VpYdwFti7-30" style="edgeStyle=orthogonalEdgeStyle;rounded=0;orthogonalLoop=1;jettySize=auto;html=1;exitX=1;exitY=0.5;exitDx=0;exitDy=0;entryX=0;entryY=0.25;entryDx=0;entryDy=0;strokeWidth=2;" parent="1" source="TBEka644gf0eOJCMvtAv-27" target="TBEka644gf0eOJCMvtAv-6" edge="1">
          <mxGeometry relative="1" as="geometry" />
        </mxCell>
        <mxCell id="TBEka644gf0eOJCMvtAv-27" value="Max. acceleration" style="rounded=0;whiteSpace=wrap;html=1;fillColor=#d80073;strokeColor=#A50040;fontColor=#ffffff;fontStyle=1;strokeWidth=2;fontSize=13;" parent="1" vertex="1">
          <mxGeometry x="79" y="415" width="120" height="30" as="geometry" />
        </mxCell>
        <mxCell id="RDmmLznYdM-VpYdwFti7-32" style="edgeStyle=orthogonalEdgeStyle;rounded=0;orthogonalLoop=1;jettySize=auto;html=1;exitX=1;exitY=0.5;exitDx=0;exitDy=0;entryX=0;entryY=0.25;entryDx=0;entryDy=0;strokeWidth=2;" parent="1" source="TBEka644gf0eOJCMvtAv-28" target="TBEka644gf0eOJCMvtAv-7" edge="1">
          <mxGeometry relative="1" as="geometry" />
        </mxCell>
        <mxCell id="TBEka644gf0eOJCMvtAv-28" value="Max. jerk" style="rounded=0;whiteSpace=wrap;html=1;fillColor=#d80073;strokeColor=#A50040;fontColor=#ffffff;fontStyle=1;strokeWidth=2;fontSize=13;" parent="1" vertex="1">
          <mxGeometry x="79" y="520" width="120" height="30" as="geometry" />
        </mxCell>
        <mxCell id="RDmmLznYdM-VpYdwFti7-46" style="edgeStyle=none;rounded=0;orthogonalLoop=1;jettySize=auto;html=1;exitX=0;exitY=1;exitDx=0;exitDy=0;entryX=1;entryY=0;entryDx=0;entryDy=0;strokeWidth=2;" parent="1" source="TBEka644gf0eOJCMvtAv-32" target="TBEka644gf0eOJCMvtAv-4" edge="1">
          <mxGeometry relative="1" as="geometry" />
        </mxCell>
        <mxCell id="TBEka644gf0eOJCMvtAv-32" value="Rotational limits" style="rounded=0;whiteSpace=wrap;html=1;fillColor=#d80073;strokeColor=#A50040;fontColor=#ffffff;fontStyle=1;strokeWidth=2;fontSize=13;" parent="1" vertex="1">
          <mxGeometry x="490" y="110" width="120" height="30" as="geometry" />
        </mxCell>
        <mxCell id="TBEka644gf0eOJCMvtAv-35" style="edgeStyle=none;rounded=0;orthogonalLoop=1;jettySize=auto;html=1;exitX=0.5;exitY=1;exitDx=0;exitDy=0;entryX=0.5;entryY=0;entryDx=0;entryDy=0;fontStyle=1;strokeWidth=2;fontSize=13;" parent="1" source="TBEka644gf0eOJCMvtAv-34" target="TBEka644gf0eOJCMvtAv-21" edge="1">
          <mxGeometry relative="1" as="geometry" />
        </mxCell>
        <mxCell id="TBEka644gf0eOJCMvtAv-34" value="Standard Deviation" style="rounded=0;whiteSpace=wrap;html=1;fillColor=#d80073;fontColor=#ffffff;strokeColor=#A50040;fontStyle=1;strokeWidth=2;fontSize=13;" parent="1" vertex="1">
          <mxGeometry x="320" y="20" width="120" height="40" as="geometry" />
        </mxCell>
        <mxCell id="TBEka644gf0eOJCMvtAv-43" style="edgeStyle=none;rounded=0;orthogonalLoop=1;jettySize=auto;html=1;exitX=1;exitY=0.5;exitDx=0;exitDy=0;entryX=0;entryY=0.5;entryDx=0;entryDy=0;fontStyle=1;strokeWidth=2;fontSize=13;" parent="1" source="TBEka644gf0eOJCMvtAv-38" target="TBEka644gf0eOJCMvtAv-42" edge="1">
          <mxGeometry relative="1" as="geometry" />
        </mxCell>
        <mxCell id="TBEka644gf0eOJCMvtAv-38" value="Scaling / MBS /&lt;br style=&quot;font-size: 13px;&quot;&gt;Machine Learning" style="rounded=0;whiteSpace=wrap;html=1;fillColor=#e3c800;fontColor=#000000;strokeColor=#B09500;fontStyle=1;strokeWidth=2;fontSize=13;" parent="1" vertex="1">
          <mxGeometry x="340" y="620" width="120" height="60" as="geometry" />
        </mxCell>
        <mxCell id="TBEka644gf0eOJCMvtAv-56" style="edgeStyle=none;rounded=0;orthogonalLoop=1;jettySize=auto;html=1;exitX=0.5;exitY=1;exitDx=0;exitDy=0;entryX=0.5;entryY=0;entryDx=0;entryDy=0;fontStyle=1;strokeWidth=2;fontSize=13;" parent="1" source="TBEka644gf0eOJCMvtAv-42" target="TBEka644gf0eOJCMvtAv-55" edge="1">
          <mxGeometry relative="1" as="geometry" />
        </mxCell>
        <mxCell id="TBEka644gf0eOJCMvtAv-42" value="Energy" style="rounded=0;whiteSpace=wrap;html=1;fillColor=#0050ef;fontColor=#ffffff;strokeColor=#001DBC;fontStyle=1;strokeWidth=2;fontSize=13;" parent="1" vertex="1">
          <mxGeometry x="501" y="630" width="120" height="40" as="geometry" />
        </mxCell>
        <mxCell id="RDmmLznYdM-VpYdwFti7-13" style="edgeStyle=orthogonalEdgeStyle;rounded=0;orthogonalLoop=1;jettySize=auto;html=1;exitX=0.25;exitY=1;exitDx=0;exitDy=0;entryX=0;entryY=0.5;entryDx=0;entryDy=0;strokeWidth=2;" parent="1" source="TBEka644gf0eOJCMvtAv-44" target="TBEka644gf0eOJCMvtAv-46" edge="1">
          <mxGeometry relative="1" as="geometry" />
        </mxCell>
        <mxCell id="RDmmLznYdM-VpYdwFti7-14" style="edgeStyle=orthogonalEdgeStyle;rounded=0;orthogonalLoop=1;jettySize=auto;html=1;exitX=0.25;exitY=1;exitDx=0;exitDy=0;entryX=0;entryY=0.5;entryDx=0;entryDy=0;strokeWidth=2;" parent="1" source="TBEka644gf0eOJCMvtAv-44" target="TBEka644gf0eOJCMvtAv-47" edge="1">
          <mxGeometry relative="1" as="geometry">
            <Array as="points">
              <mxPoint x="475" y="310" />
              <mxPoint x="410" y="310" />
              <mxPoint x="410" y="450" />
            </Array>
          </mxGeometry>
        </mxCell>
        <mxCell id="RDmmLznYdM-VpYdwFti7-15" style="edgeStyle=orthogonalEdgeStyle;rounded=0;orthogonalLoop=1;jettySize=auto;html=1;exitX=0.25;exitY=1;exitDx=0;exitDy=0;entryX=0;entryY=0.5;entryDx=0;entryDy=0;strokeWidth=2;" parent="1" source="TBEka644gf0eOJCMvtAv-44" target="TBEka644gf0eOJCMvtAv-48" edge="1">
          <mxGeometry relative="1" as="geometry">
            <Array as="points">
              <mxPoint x="475" y="310" />
              <mxPoint x="410" y="310" />
              <mxPoint x="410" y="560" />
            </Array>
          </mxGeometry>
        </mxCell>
        <mxCell id="TBEka644gf0eOJCMvtAv-44" value="Forwards kinematics" style="rounded=0;whiteSpace=wrap;html=1;fillColor=#e3c800;fontColor=#000000;strokeColor=#B09500;fontStyle=1;strokeWidth=2;fontSize=13;" parent="1" vertex="1">
          <mxGeometry x="445" y="250" width="120" height="40" as="geometry" />
        </mxCell>
        <mxCell id="RDmmLznYdM-VpYdwFti7-39" style="edgeStyle=orthogonalEdgeStyle;rounded=0;orthogonalLoop=1;jettySize=auto;html=1;exitX=1;exitY=0.75;exitDx=0;exitDy=0;entryX=0;entryY=0.5;entryDx=0;entryDy=0;strokeWidth=2;" parent="1" source="TBEka644gf0eOJCMvtAv-46" target="TBEka644gf0eOJCMvtAv-59" edge="1">
          <mxGeometry relative="1" as="geometry" />
        </mxCell>
        <mxCell id="TBEka644gf0eOJCMvtAv-46" value="Vanishing point orientation" style="rounded=0;whiteSpace=wrap;html=1;fillColor=#0050ef;fontColor=#ffffff;strokeColor=#001DBC;fontStyle=1;strokeWidth=2;fontSize=13;" parent="1" vertex="1">
          <mxGeometry x="430" y="330" width="150" height="40" as="geometry" />
        </mxCell>
        <mxCell id="RDmmLznYdM-VpYdwFti7-40" style="edgeStyle=orthogonalEdgeStyle;rounded=0;orthogonalLoop=1;jettySize=auto;html=1;exitX=1;exitY=0.5;exitDx=0;exitDy=0;entryX=0;entryY=0.5;entryDx=0;entryDy=0;strokeWidth=2;" parent="1" source="TBEka644gf0eOJCMvtAv-47" target="TBEka644gf0eOJCMvtAv-58" edge="1">
          <mxGeometry relative="1" as="geometry" />
        </mxCell>
        <mxCell id="TBEka644gf0eOJCMvtAv-47" value="Singularity analysis" style="rounded=0;whiteSpace=wrap;html=1;fillColor=#0050ef;fontColor=#ffffff;strokeColor=#001DBC;fontStyle=1;strokeWidth=2;fontSize=13;" parent="1" vertex="1">
          <mxGeometry x="430" y="430" width="150" height="40" as="geometry" />
        </mxCell>
        <mxCell id="RDmmLznYdM-VpYdwFti7-41" style="edgeStyle=orthogonalEdgeStyle;rounded=0;orthogonalLoop=1;jettySize=auto;html=1;exitX=1;exitY=0.5;exitDx=0;exitDy=0;entryX=0;entryY=0.5;entryDx=0;entryDy=0;strokeWidth=2;" parent="1" source="TBEka644gf0eOJCMvtAv-48" target="RDmmLznYdM-VpYdwFti7-5" edge="1">
          <mxGeometry relative="1" as="geometry" />
        </mxCell>
        <mxCell id="TBEka644gf0eOJCMvtAv-48" value="Torch-Gravity&lt;br style=&quot;font-size: 13px;&quot;&gt;Orientation" style="rounded=0;whiteSpace=wrap;html=1;fillColor=#0050ef;fontColor=#ffffff;strokeColor=#001DBC;fontStyle=1;strokeWidth=2;fontSize=13;" parent="1" vertex="1">
          <mxGeometry x="430" y="540" width="150" height="40" as="geometry" />
        </mxCell>
        <mxCell id="TBEka644gf0eOJCMvtAv-55" value="Local Score" style="rounded=0;whiteSpace=wrap;html=1;fillColor=#ffff88;strokeColor=#36393d;fontStyle=1;strokeWidth=2;fontSize=13;" parent="1" vertex="1">
          <mxGeometry x="500" y="700" width="120" height="30" as="geometry" />
        </mxCell>
        <mxCell id="TBEka644gf0eOJCMvtAv-58" value="Local Score" style="rounded=0;whiteSpace=wrap;html=1;fillColor=#ffff88;strokeColor=#36393d;fontStyle=1;strokeWidth=2;fontSize=13;" parent="1" vertex="1">
          <mxGeometry x="620" y="435" width="120" height="30" as="geometry" />
        </mxCell>
        <mxCell id="TBEka644gf0eOJCMvtAv-59" value="Local Score" style="rounded=0;whiteSpace=wrap;html=1;fillColor=#ffff88;strokeColor=#36393d;fontStyle=1;strokeWidth=2;fontSize=13;" parent="1" vertex="1">
          <mxGeometry x="620" y="360" width="120" height="30" as="geometry" />
        </mxCell>
        <mxCell id="TBEka644gf0eOJCMvtAv-60" value="Local Score" style="rounded=0;whiteSpace=wrap;html=1;fillColor=#ffff88;strokeColor=#36393d;fontStyle=1;strokeWidth=2;fontSize=13;" parent="1" vertex="1">
          <mxGeometry x="640" y="175" width="120" height="30" as="geometry" />
        </mxCell>
        <mxCell id="TBEka644gf0eOJCMvtAv-64" value="Local Score" style="rounded=0;whiteSpace=wrap;html=1;fillColor=#ffff88;strokeColor=#36393d;fontStyle=1;strokeWidth=2;fontSize=13;" parent="1" vertex="1">
          <mxGeometry x="79" y="350" width="120" height="30" as="geometry" />
        </mxCell>
        <mxCell id="TBEka644gf0eOJCMvtAv-65" value="Local Score" style="rounded=0;whiteSpace=wrap;html=1;fillColor=#ffff88;strokeColor=#36393d;fontStyle=1;strokeWidth=2;fontSize=13;" parent="1" vertex="1">
          <mxGeometry x="79" y="460" width="120" height="30" as="geometry" />
        </mxCell>
        <mxCell id="TBEka644gf0eOJCMvtAv-66" value="Local Score" style="rounded=0;whiteSpace=wrap;html=1;fillColor=#ffff88;strokeColor=#36393d;fontStyle=1;strokeWidth=2;fontSize=13;" parent="1" vertex="1">
          <mxGeometry x="79" y="565" width="120" height="30" as="geometry" />
        </mxCell>
        <mxCell id="RDmmLznYdM-VpYdwFti7-4" value="Local Score" style="rounded=0;whiteSpace=wrap;html=1;fillColor=#ffff88;strokeColor=#36393d;fontStyle=1;strokeWidth=2;fontSize=13;" parent="1" vertex="1">
          <mxGeometry x="490" y="40" width="120" height="30" as="geometry" />
        </mxCell>
        <mxCell id="RDmmLznYdM-VpYdwFti7-5" value="Local Score" style="rounded=0;whiteSpace=wrap;html=1;fillColor=#ffff88;strokeColor=#36393d;fontStyle=1;strokeWidth=2;fontSize=13;" parent="1" vertex="1">
          <mxGeometry x="620" y="545" width="120" height="30" as="geometry" />
        </mxCell>
        <mxCell id="RDmmLznYdM-VpYdwFti7-37" style="edgeStyle=orthogonalEdgeStyle;rounded=0;orthogonalLoop=1;jettySize=auto;html=1;exitX=0;exitY=0.5;exitDx=0;exitDy=0;entryX=1;entryY=0.25;entryDx=0;entryDy=0;strokeWidth=2;" parent="1" source="RDmmLznYdM-VpYdwFti7-17" target="TBEka644gf0eOJCMvtAv-46" edge="1">
          <mxGeometry relative="1" as="geometry" />
        </mxCell>
        <mxCell id="RDmmLznYdM-VpYdwFti7-17" value="Vanishing point" style="rounded=0;whiteSpace=wrap;html=1;fillColor=#d80073;strokeColor=#A50040;fontColor=#ffffff;fontStyle=1;strokeWidth=2;fontSize=13;" parent="1" vertex="1">
          <mxGeometry x="620" y="310" width="120" height="30" as="geometry" />
        </mxCell>
        <mxCell id="RDmmLznYdM-VpYdwFti7-19" style="edgeStyle=orthogonalEdgeStyle;rounded=0;orthogonalLoop=1;jettySize=auto;html=1;exitX=0.5;exitY=1;exitDx=0;exitDy=0;strokeWidth=2;" parent="1" source="TBEka644gf0eOJCMvtAv-5" target="TBEka644gf0eOJCMvtAv-5" edge="1">
          <mxGeometry relative="1" as="geometry" />
        </mxCell>
        <mxCell id="RDmmLznYdM-VpYdwFti7-29" style="edgeStyle=orthogonalEdgeStyle;rounded=0;orthogonalLoop=1;jettySize=auto;html=1;exitX=0;exitY=0.5;exitDx=0;exitDy=0;entryX=1.019;entryY=0.544;entryDx=0;entryDy=0;entryPerimeter=0;strokeWidth=2;" parent="1" source="TBEka644gf0eOJCMvtAv-5" target="TBEka644gf0eOJCMvtAv-64" edge="1">
          <mxGeometry relative="1" as="geometry" />
        </mxCell>
        <mxCell id="RDmmLznYdM-VpYdwFti7-51" style="edgeStyle=none;rounded=0;orthogonalLoop=1;jettySize=auto;html=1;exitX=0.5;exitY=1;exitDx=0;exitDy=0;entryX=0.5;entryY=0;entryDx=0;entryDy=0;strokeWidth=2;" parent="1" source="RDmmLznYdM-VpYdwFti7-50" target="TBEka644gf0eOJCMvtAv-3" edge="1">
          <mxGeometry relative="1" as="geometry" />
        </mxCell>
        <mxCell id="RDmmLznYdM-VpYdwFti7-50" value="Boundary Conditions" style="rounded=0;whiteSpace=wrap;html=1;fillColor=#e51400;fontColor=#ffffff;strokeColor=#B20000;fontStyle=1;strokeWidth=2;fontSize=13;" parent="1" vertex="1">
          <mxGeometry x="150" y="110" width="120" height="40" as="geometry" />
        </mxCell>
      </root>
    </mxGraphModel>
  </diagram>
</mxfile>
